<?xml version="1.0" encoding="UTF-8"?>
<svg width="752pt" height="752pt" version="1.1" viewBox="0 0 752 752" xmlns="http://www.w3.org/2000/svg">
 <g>
  <path d="m407.26 516.18-31.258 31.258-31.258-31.258c-3.7891-3.7891-9.4727-3.7891-13.262 0-3.7891 3.7891-3.7891 9.4727 0 13.262l37.887 37.887c1.8984 1.8945 4.2656 2.8398 6.6328 2.8398s4.7344-0.94531 6.6289-2.8398l37.887-37.887c3.7891-3.7891 3.7891-9.4727 0-13.262-3.7852-3.7852-9.4688-3.7852-13.258 0z"/>
  <path d="m420.52 464.09c-3.7891-3.7891-9.4727-3.7891-13.262 0l-31.258 31.258-31.258-31.258c-3.7891-3.7891-9.4727-3.7891-13.262 0-3.7891 3.7891-3.7891 9.4727 0 13.262l37.887 37.887c1.8984 1.8945 4.2656 2.8398 6.6328 2.8398s4.7344-0.94531 6.6289-2.8398l37.887-37.887c3.793-3.7891 3.793-9.4727 0.003906-13.262z"/>
  <path d="m461.25 352.32v-85.246c0-46.883-38.359-85.246-85.246-85.246-46.883 0-85.246 38.359-85.246 85.246v85.246c0 46.883 38.359 85.246 85.246 85.246 46.887-0.003906 85.246-38.363 85.246-85.246zm-85.246 66.301c-36.465 0-66.301-29.836-66.301-66.301v-85.246c0-36.465 29.836-66.301 66.301-66.301s66.301 29.836 66.301 66.301v85.246c0.003907 36.465-29.832 66.301-66.301 66.301z"/>
  <path d="m376 233.93c-5.2109 0-9.4727 4.2617-9.4727 9.4727v28.414c0 5.2109 4.2617 9.4727 9.4727 9.4727s9.4727-4.2617 9.4727-9.4727v-28.414c0-5.2109-4.2617-9.4727-9.4727-9.4727z"/>
 </g>
</svg>
